<svg xmlns:svg="http://www.w3.org/2000/svg" xmlns="http://www.w3.org/2000/svg" id="svg3042" version="1.1" width="170" height="216.77873" xml:space="preserve"><metadata id="metadata3048"/><defs id="defs3046"/><g id="g3050" transform="matrix(1.25,0,0,-1.25,0,990)"><path d="M85 0C46.340068 0 15 31.340062 15 70 15 108.65993 46.340068 140 85 140 123.65993 140 155 108.65993 155 70 155 31.340062 123.65993 0 85 0zM76.46875 155.5C71.156255 155.5 67.5625 158.64027 67.5625 163.8125 67.5625 168.35354 70.135316 170.64604 72.625 172.75L74.625 174.4375C76.465963 176.05052 78.34375 178.4013 78.34375 181.03125 78.34375 182.36376 77.976587 183.4375 76.46875 183.4375 74.259594 183.4375 74.03125 180.17646 74.03125 177.40625L67.5625 178.65625C67.807963 183.60055 70.38862 188.34375 76.4375 188.34375 80.838279 188.34375 84.5625 185.33601 84.5625 180.8125 84.5625 175.93832 82.118602 172.95544 78.875 170.0625 78.138615 169.39625 77.369018 168.74629 76.5625 168.0625 75.054663 166.80012 73.84375 165.41801 73.84375 163.15625 73.84375 161.82374 74.429663 160.375 75.9375 160.375 77.620668 160.375 77.96875 162.5097 77.96875 164 77.96875 164.49093 77.90625 164.87799 77.90625 165.28125L84.5 164.375C84.5 163.86654 84.53125 163.7302 84.53125 163.625 84.53125 159.15409 80.957194 155.5 76.46875 155.5zM95.96875 155.53125C88.938023 155.53125 86.8125 160.47701 86.8125 166.71875L86.8125 177.15625C86.8125 183.2402 88.955556 188.3125 95.96875 188.3125 102.82415 188.3125 104.72484 183.05569 104.8125 177.375L104.84375 174.71875 98.59375 174.71875 98.59375 177.96875C98.611288 180.42338 98.300638 183.375 95.96875 183.375 93.549198 183.375 93.21875 180.71369 93.21875 178.75L93.21875 165.125C93.21875 163.17884 93.566731 160.4375 95.96875 160.4375 98.388303 160.4375 98.5625 163.49433 98.5625 165.84375L98.5625 168.75 104.84375 168.75 104.84375 166.03125C104.84375 159.9473 102.50855 155.53125 95.96875 155.53125zM3.84375 156.125L3.84375 180.0625C3.84375 183.2009 3.0507395 183.84757 0 183.8125L0 188.28125 3.125 188.28125C9.0686821 188.28125 10.25 185.57776 10.25 180.125L10.25 156.125 3.84375 156.125zM19.125 156.125L12.3125 187.6875 18.625 187.6875 19.875 180.9375 24 180.9375 25.28125 187.6875 31.5625 187.6875 24.78125 156.125 19.125 156.125zM30.71875 156.125L36.53125 187.6875 42.375 187.6875 48.59375 156.125 42.625 156.125 39.5625 175.25 36.78125 156.125 30.71875 156.125zM54.25 156.125L47.4375 187.6875 53.78125 187.6875 55 180.9375 59.125 180.9375 60.40625 187.6875 66.71875 187.6875 59.90625 156.125 54.25 156.125zM107.84375 156.125L107.84375 187.6875 114.21875 187.6875 114.21875 173.15625 115.28125 173.15625 118.90625 187.6875 125.5 187.6875C123.72917 182.44514 122.14047 177.45193 120.5625 172.4375 124.47236 170.75432 124.84375 167.20771 124.84375 164.4375 124.84375 158.30096 120.88273 156.125 114.78125 156.125L107.84375 156.125zM127.75 156.125L127.75 187.6875 134.15625 187.6875 134.15625 156.125 127.75 156.125zM137.9375 156.125L137.9375 187.6875 144.3125 187.6875 144.3125 174.1875 144.34375 174.1875C149.98937 174.15238 153.4375 172.28609 153.4375 165.0625 153.4375 159.48701 151.24319 156.125 145.5625 156.125L137.9375 156.125zM154.4375 156.125L154.4375 160.90625 159.0625 160.90625 159.0625 187.6875 165.46875 187.6875 165.46875 160.90625 170 160.90625 170 156.125 154.4375 156.125zM144.3125 160.6875L144.65625 160.6875C147.35633 160.6875 147.375 162.47908 147.375 164.96875 147.375 168.17729 147.35025 169.6875 144.5625 169.6875L144.3125 169.6875 144.3125 160.6875zM114.21875 160.8125L116.34375 160.8125C118.25485 160.8125 118.5 163.81157 118.5 164.96875 118.5 166.14346 118.18399 169.28125 116.0625 169.28125L114.21875 169.28125 114.21875 160.8125zM21.96875 165.3125L23.5625 177.03125 20.3125 177.03125 21.96875 165.3125zM57.09375 165.3125L58.6875 177.03125 55.4375 177.03125 57.09375 165.3125zM100.84375 191.03125C95.283973 191.03125 93.53125 194.84449 93.53125 199.8125L93.53125 208.5625C93.53125 212.40205 95.206015 216.78125 99.84375 216.78125 101.48141 216.78125 103.22303 215.88363 104.0625 214.5625L104.6875 216.3125 108.125 216.3125 108.125 203.5625 100.28125 203.5625 100.28125 207.15625 103.125 207.15625 103.125 209.125C103.125 210.73514 102.81169 212.90625 100.84375 212.90625 98.875809 212.90625 98.53125 210.88765 98.53125 209.25L98.53125 198.5625C98.53125 196.9386 98.88957 194.90625 100.84375 194.90625 102.94931 194.90625 103.125 197.21469 103.125 199.03125L103.125 200.75 107.90625 200.75 107.90625 199.3125C107.90625 194.53715 106.07324 191.03125 100.84375 191.03125zM110.90625 191.53125L110.90625 216.3125 115.90625 216.3125 115.90625 204.875 116.75 204.875 119.5625 216.3125 124.75 216.3125C123.36006 212.19771 122.11356 208.24837 120.875 204.3125 123.94389 202.99136 124.25 200.23688 124.25 198.0625 124.25 193.24586 121.13287 191.53125 116.34375 191.53125L110.90625 191.53125zM126.25 191.53125L126.25 207.09375C126.25 212.19939 127.21085 216.78125 133.5 216.78125 139.80291 216.78125 140.71875 212.19939 140.71875 207.09375L140.71875 191.53125 135.71875 191.53125 135.71875 206.9375C135.71875 211.10733 135.72941 212.90625 133.5 212.90625 131.28435 212.90625 131.28125 211.10733 131.28125 206.9375L131.28125 191.53125 126.25 191.53125zM143.5625 191.53125L143.5625 216.3125 148.5625 216.3125 148.5625 205.6875 148.59375 205.6875C153.02506 205.65997 155.71875 204.20112 155.71875 198.53125 155.71875 194.15499 153.99009 191.53125 149.53125 191.53125L143.5625 191.53125zM160.21875 191.53125L154.875 216.3125 159.84375 216.3125 160.8125 211 164.03125 211 165.0625 216.3125 170 216.3125 164.65625 191.53125 160.21875 191.53125zM148.5625 195.09375L148.84375 195.09375C150.96309 195.09375 150.96875 196.48331 150.96875 198.4375 150.96875 200.95591 150.93814 202.15625 148.75 202.15625L148.5625 202.15625 148.5625 195.09375zM115.90625 195.1875L117.59375 195.1875C119.09379 195.1875 119.28125 197.52921 119.28125 198.4375 119.28125 199.35954 119.00893 201.84375 117.34375 201.84375L115.90625 201.84375 115.90625 195.1875zM162.46875 198.71875L163.71875 207.90625 161.15625 207.90625 162.46875 198.71875z" transform="matrix(0.8,0,0,-0.8,0,792)" id="path3216" style="fill-opacity:1;fill:#fff"/><path d="M85 10C51.862675 10 25 36.862675 25 70 25 103.13731 51.862675 130 85 130 118.13731 130 145 103.13731 145 70 145 36.862675 118.13731 10 85 10zM36.375 191.03125C30.815224 191.03125 29.0625 194.84449 29.0625 199.8125L29.0625 208.5625C29.0625 212.40205 30.737265 216.78125 35.375 216.78125 37.012657 216.78125 38.754279 215.88363 39.59375 214.5625L40.21875 216.3125 43.65625 216.3125 43.65625 203.5625 35.8125 203.5625 35.8125 207.15625 38.65625 207.15625 38.65625 209.125C38.65625 210.73514 38.342941 212.90625 36.375 212.90625 34.407059 212.90625 34.0625 210.88765 34.0625 209.25L34.0625 198.5625C34.0625 196.9386 34.420821 194.90625 36.375 194.90625 38.48056 194.90625 38.65625 197.21469 38.65625 199.03125L38.65625 200.75 43.46875 200.75 43.46875 199.3125C43.46875 194.53715 41.604494 191.03125 36.375 191.03125zM0.75 191.53125L0.75 194.96875 6.53125 194.96875 0 213.15625 0 216.3125 11.4375 216.3125 11.4375 212.84375 4.875 212.84375 11.4375 194.6875 11.4375 191.53125 0.75 191.53125zM18.25 191.53125L12.90625 216.3125 17.875 216.3125 18.84375 211 22.0625 211 23.09375 216.3125 28.03125 216.3125 22.6875 191.53125 18.25 191.53125zM46.4375 191.53125L46.4375 216.3125 51.46875 216.3125 51.46875 204.875 52.28125 204.875 55.125 216.3125 60.3125 216.3125C58.922556 212.19771 57.676065 208.24837 56.4375 204.3125 59.506388 202.99136 59.78125 200.23688 59.78125 198.0625 59.78125 193.24586 56.695365 191.53125 51.90625 191.53125L46.4375 191.53125zM62.09375 191.53125L62.09375 216.3125 72.40625 216.3125 72.40625 212.84375 67.09375 212.84375 67.09375 205.21875 70.875 205.21875 70.875 201.71875 67.09375 201.71875 67.09375 194.96875 72.40625 194.96875 72.40625 191.53125 62.09375 191.53125zM74.3125 191.53125L74.3125 216.3125 80.40625 216.3125C85.277935 216.3125 87.65625 213.99554 87.65625 209 87.65625 205.90359 86.484029 203.53442 83.25 202.75 85.74089 201.91053 87 200.59352 87 197.9375 87 192.58415 83.644893 191.53125 79.40625 191.53125L74.3125 191.53125zM79.3125 194.875L79.59375 194.875C81.272692 194.86124 82.4375 194.86748 82.4375 197.8125 82.4375 199.7254 82.024132 201.28125 80.125 201.28125L79.3125 201.28125 79.3125 194.875zM51.46875 195.1875L53.125 195.1875C54.625039 195.1875 54.8125 197.52921 54.8125 198.4375 54.8125 199.35954 54.540181 201.84375 52.875 201.84375L51.46875 201.84375 51.46875 195.1875zM20.5 198.71875L21.75 207.90625 19.1875 207.90625 20.5 198.71875zM79.3125 204.5625L79.8125 204.5625C82.138249 204.5625 82.8125 206.27546 82.8125 208.65625 82.8125 211.51871 82.42352 212.75 79.78125 212.75L79.3125 212.75 79.3125 204.5625z" transform="matrix(0.8,0,0,-0.8,0,792)" id="path3172" style="fill-opacity:1;fill-rule:evenodd;fill:#ebe247"/><path d="M115.0625 28.09375C117.22881 30.0371 118.99279 32.968088 117.96875 35.96875 117.21367 39.047475 114.14219 40.524587 111.3125 41.1875 113.47896 41.535287 115.86633 42.026988 117.875 40.8125 121.17115 39.105913 122.3937 34.491713 120.3125 31.40625 119.2101 29.489438 117.03851 28.750525 115.0625 28.09375zM53.53125 30.25C52.9927 31.195375 52.451238 32.123563 51.90625 33.0625 50.82945 33.0625 49.764138 33.05625 48.6875 33.0625 49.218988 34.008025 49.7427 34.954288 50.28125 35.90625 49.736113 36.831688 49.1879 37.748562 48.65625 38.6875 49.739488 38.69375 50.823012 38.73625 51.90625 38.75 52.451388 39.6759 53.017812 40.57455 53.5625 41.5 54.0946 40.561213 54.6177 39.651087 55.15625 38.71875L58.40625 38.71875C57.868 37.766787 57.332987 36.820375 56.78125 35.875 57.332987 34.942513 57.886375 33.995 58.4375 33.0625 57.347825 33.0625 56.245925 33.06875 55.15625 33.0625 54.611113 32.123713 54.076237 31.188937 53.53125 30.25zM75.84375 35.03125C74.694887 35.03125 73.555113 35.054787 72.40625 35.0625 73.016563 36.9399 73.632787 38.816225 74.25 40.6875 77.809613 40.69375 81.376213 40.6875 84.9375 40.6875 88.498937 40.688537 92.064937 40.695 95.625 40.6875 96.241762 38.816225 96.858587 36.9399 97.46875 35.0625 96.320037 35.055 95.180113 35.03125 94.03125 35.03125 93.440413 36.167075 92.840837 37.326325 92.25 38.46875 90.864675 38.4625 89.479075 38.443625 88.09375 38.4375 87.509663 37.301662 86.934437 36.160638 86.34375 35.03125L84.9375 35.03125 83.53125 35.03125C82.940563 36.160638 82.365487 37.301662 81.78125 38.4375 80.395913 38.44375 79.010325 38.462625 77.625 38.46875 77.034313 37.326325 76.4349 36.167075 75.84375 35.03125zM77.5 41.75C76.91575 51.026475 76.414963 60.285562 75.84375 69.5625 77.537612 69.490375 79.2366 69.48875 80.9375 69.46875 81.65945 70.466887 82.396 71.470625 83.125 72.46875 83.731325 72.46875 84.330712 72.47 84.9375 72.46875 85.544287 72.47125 86.144125 72.46875 86.75 72.46875 87.479 71.470625 88.214938 70.466887 88.9375 69.46875 90.63795 69.488875 92.3377 69.4905 94.03125 69.5625 93.460037 60.285562 92.95925 51.026475 92.375 41.75 89.898625 41.7475 87.415713 41.75 84.9375 41.75 82.459438 41.75 79.976675 41.74625 77.5 41.75zM84.9375 44.46875C85.723388 44.502125 86.34375 45.143012 86.34375 45.9375 86.34375 46.571275 85.967037 47.103038 85.40625 47.3125L85.40625 53.96875 84.9375 53.96875 84.5 53.96875 84.5 47.3125C83.938913 47.103038 83.53125 46.571275 83.53125 45.9375 83.53125 45.143012 84.1516 44.502187 84.9375 44.46875zM62.3125 46.09375C61.885587 46.107 61.045325 46.136625 60.625 46.15625 60.231212 46.963763 59.856412 47.786075 59.46875 48.59375 58.484125 48.58625 57.484475 48.56225 56.5 48.5625 56.079675 47.74195 55.670325 46.939113 55.25 46.125 54.7705 46.125 53.8228 46.118875 53.34375 46.125 53.718063 47.372462 54.094587 48.627375 54.46875 49.875 59.162962 49.88125 63.86185 49.88125 68.5625 49.875 68.936813 48.620938 69.313187 47.3786 69.6875 46.125 69.030725 46.13125 68.375062 46.118875 67.71875 46.125 67.318362 46.939112 66.900388 47.748388 66.5 48.5625 65.5281 48.57 64.56565 48.587625 63.59375 48.59375 63.173887 47.760012 62.739262 46.920588 62.3125 46.09375zM107.5625 46.09375C107.13559 46.920588 106.70126 47.760013 106.28125 48.59375 105.30935 48.5875 104.34705 48.569875 103.375 48.5625 102.97476 47.748388 102.55694 46.939112 102.15625 46.125 101.49977 46.11875 100.84427 46.131125 100.1875 46.125 100.56166 47.3786 100.93834 48.620937 101.3125 49.875 106.01315 49.88125 110.71173 49.88125 115.40625 49.875 115.7801 48.627375 116.15709 47.372462 116.53125 46.125 116.05235 46.11875 115.10436 46.125 114.625 46.125 114.20452 46.939113 113.79533 47.74195 113.375 48.5625 112.39038 48.5622 111.39072 48.586375 110.40625 48.59375 110.01844 47.786075 109.64379 46.963763 109.25 46.15625 108.82952 46.136625 107.98896 46.107 107.5625 46.09375zM61.5 50.875C59.880063 50.8757 58.24655 50.9 56.625 50.90625 56.355875 57.3009 55.940125 63.674437 55.625 70.0625 56.20265 70.863725 56.7661 71.674275 57.34375 72.46875L61.125 72.46875C61.84695 71.477225 62.583487 70.484637 63.3125 69.5 64.66515 69.5 66.016212 69.49375 67.375 69.5 67.033663 63.2958 66.698438 57.072613 66.34375 50.875 64.7222 50.8725 63.119937 50.874313 61.5 50.875zM103.53125 50.875C103.17656 57.072612 102.8412 63.2958 102.5 69.5 103.85879 69.49375 105.20984 69.5 106.5625 69.5 107.2915 70.484637 108.02744 71.477225 108.75 72.46875L112.53125 72.46875C113.10905 71.674275 113.6722 70.863725 114.25 70.0625 113.93473 63.674437 113.51941 57.3009 113.25 50.90625 110.00674 50.89375 106.7745 50.869 103.53125 50.875zM61.59375 52.5C62.408788 52.5 63.09375 53.1528 63.09375 53.96875 63.09375 54.602525 62.685638 55.165987 62.125 55.375L62.125 59.65625 61.09375 59.65625 61.09375 55.375C60.533125 55.165988 60.125 54.602525 60.125 53.96875 60.125 53.1528 60.778263 52.5 61.59375 52.5zM108.28125 52.5C109.09659 52.5 109.75 53.1528 109.75 53.96875 109.75 54.602525 109.34203 55.165987 108.78125 55.375L108.78125 59.65625 107.75 59.65625 107.75 55.375C107.18921 55.165988 106.78125 54.602525 106.78125 53.96875 106.78125 53.1528 107.46622 52.5 108.28125 52.5zM50.34375 70.5C51.05925 72.088662 51.784487 73.692438 52.5 75.28125 63.309175 75.28375 74.12925 75.28125 84.9375 75.28125 95.7459 75.28125 106.56629 75.28375 117.375 75.28125 118.09097 73.692438 118.81575 72.088662 119.53125 70.5 118.08061 70.4925 116.63201 70.5 115.1875 70.5 114.47859 71.491537 113.77157 72.48365 113.0625 73.46875 111.44071 73.475 109.80882 73.46875 108.1875 73.46875 107.49162 72.490713 106.79623 71.50285 106.09375 70.53125 104.83279 70.52375 103.56656 70.53125 102.3125 70.53125 101.58365 71.50315 100.85401 72.490712 100.125 73.46875L95.34375 73.46875C94.627787 72.497313 93.903 71.50285 93.1875 70.53125 91.933438 70.52375 90.6845 70.52375 89.4375 70.53125 88.735025 71.49625 88.046525 72.4659 87.34375 73.4375 86.54605 73.44375 85.7378 73.463875 84.9375 73.46875 84.13765 73.46375 83.3288 73.443625 82.53125 73.4375 81.828775 72.4659 81.139825 71.49625 80.4375 70.53125 79.19035 70.52375 77.94155 70.52375 76.6875 70.53125 75.971987 71.50285 75.247213 72.497313 74.53125 73.46875L69.75 73.46875C69.021137 72.490712 68.291513 71.50315 67.5625 70.53125 66.30845 70.53125 65.0419 70.523537 63.78125 70.53125 63.078312 71.50285 62.384 72.490713 61.6875 73.46875 60.066187 73.46875 58.433825 73.475 56.8125 73.46875 56.103588 72.48365 55.396413 71.491537 54.6875 70.5 53.243137 70.5 51.794238 70.4923 50.34375 70.5zM84.9375 76.0625C74.2173 76.0625 63.505963 76.06325 52.75 76.09375L52.8125 101.875 48.875 117.1875C57.245675 111.9467 70.315175 108.59375 85 108.59375 99.380513 108.59375 112.20716 111.8193 120.59375 116.875 119.31466 111.79633 118.22916 107.23789 117.09375 101.875L117.125 76.09375C106.36905 76.063375 95.657688 76.0625 84.9375 76.0625zM94.0625 80.5625C97.2987 80.5625 99.609012 81.679525 101.28125 84.625L97.34375 87.1875C96.470912 85.6243 95.516975 85 94.0625 85 92.571525 85 91.625 85.951688 91.625 87.1875 91.625 88.714813 92.56835 89.335725 94.75 90.28125L96.03125 90.8125C100.3585 92.667362 102.78125 94.558238 102.78125 98.8125 102.78125 103.39446 99.179963 105.90625 94.34375 105.90625 89.616575 105.90625 86.584725 103.66405 85.09375 100.71875L89.21875 98.3125C90.3098 100.09423 91.741112 101.40625 94.25 101.40625 96.359575 101.40625 97.6875 100.32934 97.6875 98.875 97.6875 97.129625 96.326862 96.518063 94 95.5L92.71875 94.96875C89.046125 93.40525 86.59375 91.426325 86.59375 87.28125 86.59375 83.462937 89.517038 80.5625 94.0625 80.5625zM77.21875 80.84375L82.3125 80.84375 82.3125 98.21875C82.3125 103.49106 79.228187 105.90625 74.71875 105.90625 70.6462 105.90625 68.293825 103.79507 67.09375 101.25L71.21875 98.75C72.0186 100.1683 72.755238 101.34375 74.5 101.34375 76.17315 101.34375 77.21875 100.70133 77.21875 98.15625L77.21875 80.84375zM85 109.6875C70.4824 109.6875 57.536975 112.98615 49.15625 118.125 59.15645 125.58434 71.564787 130 85 130 98.4352 130 110.84355 125.58434 120.84375 118.125 112.46316 112.98444 99.520412 109.6875 85 109.6875z" transform="matrix(0.8,0,0,-0.8,0,792)" id="path3054" style="fill-opacity:1;fill-rule:evenodd;fill:#232323"/></g></svg>